<svg xmlns:xlink="http://www.w3.org/1999/xlink" _ngcontent-xcd-c38="" width="10" height="16" viewBox="0 0 10 16" fill="none" xmlns="http://www.w3.org/2000/svg" class="mobile"><path _ngcontent-xcd-c38="" d="M9.70003 1.4047C9.70003 1.29753 9.65739 1.19476 9.58149 1.11898C9.50559 1.0432 9.40265 1.00063 9.29531 1.00063H7.27171C6.25272 0.94995 5.25507 1.304 4.49672 1.98541C3.73838 2.66683 3.28099 3.62021 3.22451 4.63726V6.81924H1.2009C1.09357 6.81924 0.990624 6.86181 0.914724 6.93759C0.838825 7.01337 0.796185 7.11615 0.796185 7.22331V9.32448C0.796185 9.43165 0.838825 9.53442 0.914724 9.6102C0.990624 9.68598 1.09357 9.72855 1.2009 9.72855H3.22451V15.1431C3.22451 15.2503 3.26715 15.353 3.34305 15.4288C3.41895 15.5046 3.52189 15.5472 3.62923 15.5472H6.05755C6.16489 15.5472 6.26783 15.5046 6.34373 15.4288C6.41963 15.353 6.46227 15.2503 6.46227 15.1431V9.72855H8.583C8.67301 9.72984 8.76087 9.70114 8.8327 9.64699C8.90453 9.59283 8.95624 9.51632 8.97963 9.42954L9.56243 7.32837C9.57853 7.26867 9.58069 7.20607 9.56875 7.1454C9.55681 7.08473 9.53109 7.0276 9.49355 6.97842C9.45602 6.92924 9.40769 6.88931 9.35227 6.86172C9.29685 6.83412 9.23582 6.81959 9.17389 6.81924H6.46227V4.63726C6.4824 4.43723 6.57649 4.25187 6.72617 4.11738C6.87584 3.98289 7.07035 3.90893 7.27171 3.90993H9.29531C9.40265 3.90993 9.50559 3.86736 9.58149 3.79159C9.65739 3.71581 9.70003 3.61303 9.70003 3.50586V1.4047Z" fill="#FFFFFF"></path></svg>