<svg xmlns:xlink="http://www.w3.org/1999/xlink" _ngcontent-xcd-c37="" width="1426" height="250" viewBox="0 0 1426 250" fill="none" xmlns="http://www.w3.org/2000/svg"><path _ngcontent-xcd-c37="" fill-rule="evenodd" clip-rule="evenodd" d="M1271.25 131.781C1271.16 130.915 1271.22 128.911 1272.21 127.818C1273.19 126.724 1279.18 120.893 1282.05 118.115C1282.55 117.522 1283.99 116.338 1285.74 116.338H1327.42C1328.47 116.429 1330.92 117.021 1332.34 118.661C1333.76 120.301 1338.49 124.993 1340.68 127.134C1341.31 127.772 1342.59 129.594 1342.59 131.781V233.459C1342.63 234.598 1342.32 237.286 1340.68 238.926C1339.04 240.565 1334.34 245.166 1332.2 247.262C1331.34 248.082 1329.17 249.722 1327.42 249.722H1286.83C1285.96 249.768 1283.69 249.339 1281.5 247.262C1279.31 245.185 1274.85 240.839 1272.89 238.926C1272.3 238.47 1271.11 236.903 1271.11 234.279C1271.11 231.655 1271.2 164.854 1271.25 131.781ZM1300.22 144.901H1313.21V221.296H1300.36L1300.22 144.901Z" fill="url(&quot;#paint0_linear_306_7105&quot;)"></path><path _ngcontent-xcd-c37="" d="M686.326 127.545C684.905 129.076 684.732 130.552 684.823 131.098L684.823 234.963C684.823 237.15 686.099 238.699 686.736 239.2C689.105 241.432 694.171 246.279 695.483 247.81C696.795 249.34 699.492 249.814 700.676 249.86H741.265C743.233 249.86 745.183 248.22 745.912 247.4C747.78 245.486 751.98 241.168 753.838 239.2C755.697 237.232 756.253 235.373 756.298 234.69V209.954C756.298 206.564 753.109 205.626 751.515 205.58H731.015C727.845 205.58 727.143 208.496 727.189 209.954V221.16H713.932V144.765H727.189V156.381C727.189 159.333 729.922 160.436 731.289 160.618H752.198C755.041 160.618 756.025 157.794 756.162 156.381C756.207 148.318 756.271 131.837 756.162 130.415C756.052 128.994 755.296 127.91 754.932 127.545C752.335 124.994 746.759 119.537 745.229 118.115C743.698 116.694 741.949 116.43 741.265 116.475H699.173C697.533 116.475 696.212 117.569 695.756 118.115C693.205 120.621 687.747 126.015 686.326 127.545Z" fill="url(&quot;#paint1_linear_306_7105&quot;)"></path><path _ngcontent-xcd-c37="" d="M1085.4 127.686C1083.98 129.216 1083.81 130.692 1083.9 131.239L1083.9 235.104C1083.9 237.29 1085.18 238.839 1085.81 239.34C1088.18 241.573 1093.25 246.42 1094.56 247.95C1095.87 249.481 1098.57 249.955 1099.75 250H1140.34C1142.31 250 1144.26 248.36 1144.99 247.54C1146.86 245.627 1151.06 241.308 1152.92 239.34C1154.78 237.372 1155.33 235.514 1155.38 234.83V210.094C1155.38 206.705 1152.19 205.767 1150.59 205.721H1130.09C1126.92 205.721 1126.22 208.637 1126.27 210.094V221.301H1113.01V144.906H1126.27V156.522C1126.27 159.474 1129 160.576 1130.37 160.759H1151.28C1154.12 160.759 1155.1 157.934 1155.24 156.522C1155.29 148.459 1155.35 131.977 1155.24 130.556C1155.13 129.135 1154.37 128.05 1154.01 127.686C1151.41 125.135 1145.84 119.677 1144.31 118.256C1142.78 116.835 1141.03 116.571 1140.34 116.616H1098.25C1096.61 116.616 1095.29 117.709 1094.83 118.256C1092.28 120.762 1086.83 126.155 1085.4 127.686Z" fill="url(&quot;#paint2_linear_306_7105&quot;)"></path><path _ngcontent-xcd-c37="" d="M372.547 116.339C369.951 116.339 368.447 118.252 368.447 120.576V244.803C368.447 248.848 372.092 249.768 373.914 249.723H393.183C396.901 249.723 397.83 246.443 397.83 244.803V184.398C401.611 195.148 409.392 217.252 410.266 219.657C411.141 222.062 413.091 222.663 413.956 222.663H425.299C427.705 222.663 428.944 220.204 429.263 218.974L441.563 184.398C441.517 202.984 441.453 241.086 441.563 244.803C441.672 248.52 444.706 249.723 446.209 249.86H466.572C469.961 249.86 470.809 246.671 470.809 245.076V120.576C470.809 117.077 467.711 116.293 466.162 116.339C458.782 116.385 443.339 116.448 440.606 116.339C437.873 116.23 436.46 119.118 436.096 120.576L419.56 167.451C414.594 153.284 404.335 124.074 403.023 120.576C401.711 117.077 399.288 116.293 398.24 116.339H372.547Z" fill="url(&quot;#paint3_linear_306_7105&quot;)"></path><path _ngcontent-xcd-c37="" d="M565.789 116.338C562.619 116.338 561.735 119.163 561.689 120.575V245.213C561.689 248.711 564.605 249.768 566.063 249.859H586.699C589.979 249.859 590.89 246.761 590.936 245.213V191.777C596.903 208.587 609.139 242.999 610.342 246.169C611.544 249.34 614.852 249.95 616.355 249.859H636.991C640.381 249.859 641.228 246.761 641.228 245.213C641.273 205.033 641.337 123.855 641.228 120.575C641.119 117.295 638.54 116.384 637.265 116.338H615.672C612.829 116.338 612.027 119.163 611.982 120.575V174.011C606.105 157.474 594.051 123.554 592.849 120.165C591.646 116.776 589.159 116.202 588.066 116.338H565.789Z" fill="url(&quot;#paint4_linear_306_7105&quot;)"></path><path _ngcontent-xcd-c37="" fill-rule="evenodd" clip-rule="evenodd" d="M506.887 116.201H526.43C527.523 116.156 529.901 116.885 530.666 120.164C531.432 123.444 550.756 204.349 560.322 244.392C560.823 246.169 560.76 249.722 556.496 249.722H535.996C534.675 249.767 531.869 249.148 531.213 246.305C530.557 243.463 527.569 229.45 526.156 222.799H506.34L501.42 246.305C501.192 247.399 499.972 249.585 496.91 249.585H475.727C474.27 249.266 471.545 247.836 472.311 244.665C473.076 241.495 492.491 160.344 502.103 120.164C502.923 118.251 504.017 116.201 506.887 116.201ZM512.627 194.236L516.316 175.377L520.28 194.236H512.627Z" fill="url(&quot;#paint5_linear_306_7105&quot;)"></path><path _ngcontent-xcd-c37="" d="M199.667 116.338H132.838C131.062 116.338 128.875 117.978 128.875 120.301V140.527C128.875 143.807 131.517 144.627 132.838 144.627H151.425V245.622C151.425 248.793 154.158 249.676 155.524 249.722H176.844C180.124 249.722 180.762 246.989 180.671 245.622V144.627H199.667C202.4 144.627 203.448 141.894 203.63 140.527V120.301C203.63 117.24 200.988 116.383 199.667 116.338Z" fill="url(&quot;#paint6_linear_306_7105&quot;)"></path><path _ngcontent-xcd-c37="" d="M1226.56 116.338H1159.73C1157.95 116.338 1155.77 117.978 1155.77 120.301V140.527C1155.77 143.807 1158.41 144.627 1159.73 144.627H1178.32V245.622C1178.32 248.793 1181.05 249.676 1182.42 249.722H1203.74C1207.02 249.722 1207.65 246.989 1207.56 245.622V144.627H1226.56C1229.29 144.627 1230.34 141.894 1230.52 140.527V120.301C1230.52 117.24 1227.88 116.383 1226.56 116.338Z" fill="url(&quot;#paint7_linear_306_7105&quot;)"></path><path _ngcontent-xcd-c37="" d="M103.044 116.475H82.1349C80.0849 116.475 78.035 118.525 78.035 121.121C77.9894 161.528 77.9256 243.108 78.035 246.169C78.1443 249.23 81.4516 249.813 83.0915 249.722H139.124C143.388 249.722 144.363 246.442 144.317 244.802V225.533C144.317 222.253 140.855 221.524 139.124 221.569H107.144V120.301C107.144 117.131 104.411 116.429 103.044 116.475Z" fill="url(&quot;#paint8_linear_306_7105&quot;)"></path><path _ngcontent-xcd-c37="" d="M1260.65 116.613H1239.74C1237.69 116.613 1235.64 118.663 1235.64 121.26C1235.59 161.667 1235.53 243.246 1235.64 246.308C1235.75 249.369 1239.06 249.952 1240.7 249.861H1259.77C1262.77 249.861 1264.75 248.492 1264.75 244.939V221.708V120.44C1264.75 117.269 1262.01 116.568 1260.65 116.613Z" fill="url(&quot;#paint9_linear_306_7105&quot;)"></path><path _ngcontent-xcd-c37="" d="M4.23658 116.201C2.18662 116.201 0 118.114 0 120.164V235.509C0 236.711 0.911093 238.014 1.36664 238.515C4.46436 241.522 10.8785 247.754 11.7531 248.629C12.6278 249.503 14.1219 249.631 14.7597 249.585H57.3989C58.1642 249.585 59.4488 248.765 59.9955 248.355L70.382 237.969C71.1473 237.203 71.3386 235.372 71.3386 234.552V120.164C71.3386 117.841 69.6986 116.201 67.3754 116.201H46.1924C44.4158 116.201 42.2292 117.978 42.2292 120.164V221.296H29.5194V120.164C29.5194 118.388 27.1961 116.201 25.5562 116.201H4.23658Z" fill="url(&quot;#paint10_linear_306_7105&quot;)"></path><path _ngcontent-xcd-c37="" fill-rule="evenodd" clip-rule="evenodd" d="M312.687 116.338H332.777C334.007 116.338 336.631 117.158 337.287 120.438C337.943 123.718 357.148 204.441 366.669 244.392C367.17 246.214 367.161 249.859 363.116 249.859H341.66C340.43 249.767 337.833 248.793 337.287 245.622C336.74 242.451 333.779 229.086 332.367 222.799H312.824L307.904 245.622C307.585 247.034 306.1 249.859 302.711 249.859H283.441C281.391 249.813 277.619 248.328 278.931 242.752C280.243 237.176 299.066 158.886 308.314 120.438C308.807 118.388 310.637 116.338 312.687 116.338ZM318.837 194.373L322.8 176.06L326.763 194.373H318.837Z" fill="url(&quot;#paint11_linear_306_7105&quot;)"></path><path _ngcontent-xcd-c37="" fill-rule="evenodd" clip-rule="evenodd" d="M205.406 120.71C205.406 119.253 206.254 116.337 209.643 116.337H263.078C263.853 116.292 265.784 116.529 267.315 117.84C268.846 119.152 274.422 124.856 277.018 127.544C277.61 128.181 278.767 130.031 278.658 132.327C278.549 134.623 278.613 168.178 278.658 184.669C278.704 185.99 278.275 189.042 276.198 190.682C274.121 192.322 270.23 196.559 268.545 198.472L277.701 242.888C278.294 245.211 278.33 249.83 273.738 249.721C269.146 249.612 258.614 249.676 253.922 249.721C252.783 249.539 250.341 248.491 249.685 245.758C249.029 243.025 243.125 214.735 240.256 200.932H234.516V244.801C234.561 246.441 233.75 249.721 230.142 249.721H209.506C208.094 249.585 205.27 248.601 205.27 245.758C205.27 242.915 205.361 161.209 205.406 120.71ZM234.789 172.506V145.037H249.139V172.506H234.789Z" fill="url(&quot;#paint12_linear_306_7105&quot;)"></path><path _ngcontent-xcd-c37="" fill-rule="evenodd" clip-rule="evenodd" d="M761.219 131.781C761.128 130.915 761.191 128.911 762.175 127.818C763.159 126.724 769.145 120.893 772.015 118.115C772.516 117.522 773.956 116.338 775.705 116.338H817.388C818.435 116.429 820.886 117.021 822.308 118.661C823.729 120.301 828.457 124.993 830.644 127.134C831.282 127.772 832.557 129.594 832.557 131.781V233.459C832.603 234.598 832.284 237.286 830.644 238.926C829.004 240.565 824.312 245.166 822.171 247.262C821.305 248.082 819.137 249.722 817.388 249.722H776.798C775.933 249.768 773.655 249.339 771.468 247.262C769.282 245.185 764.818 240.839 762.859 238.926C762.266 238.47 761.082 236.903 761.082 234.279C761.082 231.655 761.173 164.854 761.219 131.781ZM790.191 144.901H803.175V221.296H790.328L790.191 144.901Z" fill="url(&quot;#paint13_linear_306_7105&quot;)"></path><path _ngcontent-xcd-c37="" d="M839.937 116.201C836.876 116.201 835.837 119.025 835.7 120.438C835.746 159.66 835.81 239.253 835.7 243.845C835.591 248.437 838.57 249.676 840.073 249.722H860.026C864.072 249.722 865.083 245.804 865.083 243.845V191.64C871.051 208.358 883.232 242.615 884.216 245.895C885.2 249.175 888.27 249.813 889.682 249.722H910.455C914.61 249.722 915.558 246.26 915.512 244.529V120.438C915.512 116.939 912.596 116.156 911.139 116.201H890.366C886.649 116.201 885.993 119.025 886.129 120.438V174.147C880.116 157.291 867.816 122.843 866.723 119.891C865.63 116.939 863.261 116.201 862.213 116.201H839.937Z" fill="url(&quot;#paint14_linear_306_7105&quot;)"></path><path _ngcontent-xcd-c37="" d="M926.172 116.338C922.673 116.338 921.708 119.527 921.662 121.121V245.075C921.662 248.793 924.304 249.722 925.625 249.722H946.262C950.198 249.722 950.999 246.624 950.908 245.075V191.64C956.876 208.313 969.085 242.451 970.178 245.622C971.271 248.793 974.551 249.676 976.054 249.722H996.691C1000.63 249.722 1001.34 246.989 1001.2 245.622V120.848C1001.2 117.459 998.558 116.429 997.237 116.338H976.054C972.884 116.338 972.091 118.98 972.091 120.301V174.42C966.032 157.383 953.696 122.624 952.821 119.891C951.947 117.158 949.177 116.383 947.902 116.338H926.172Z" fill="url(&quot;#paint15_linear_306_7105&quot;)"></path><path _ngcontent-xcd-c37="" d="M1350.24 116.338C1346.74 116.338 1345.78 119.527 1345.73 121.121V245.075C1345.73 248.793 1348.37 249.722 1349.69 249.722H1370.33C1374.27 249.722 1375.07 246.624 1374.98 245.075V191.64C1380.94 208.313 1393.15 242.451 1394.25 245.622C1395.34 248.793 1398.62 249.676 1400.12 249.722H1420.76C1424.69 249.722 1425.41 246.989 1425.27 245.622V120.848C1425.27 117.459 1422.63 116.429 1421.31 116.338H1400.12C1396.95 116.338 1396.16 118.98 1396.16 120.301V174.42C1390.1 157.383 1377.76 122.624 1376.89 119.891C1376.02 117.158 1373.25 116.383 1371.97 116.338H1350.24Z" fill="url(&quot;#paint16_linear_306_7105&quot;)"></path><path _ngcontent-xcd-c37="" d="M1012.13 116.201C1008.74 116.31 1007.81 119.709 1007.76 121.394C1007.71 161.209 1007.62 241.686 1007.62 245.075C1007.62 248.464 1010.27 249.585 1011.59 249.722H1071.86C1075.46 249.722 1076.18 246.624 1076.09 245.075V225.942C1076.09 222.225 1073.27 221.204 1071.86 221.159H1037.01V196.013C1044.39 196.104 1059.86 196.231 1062.7 196.013C1065.54 195.794 1066.07 193.462 1065.98 192.323V171.96C1065.98 168.571 1063.34 167.632 1062.02 167.587H1037.01V144.764C1047.16 144.718 1068.38 144.654 1071.99 144.764C1075.6 144.873 1076.41 141.803 1076.37 140.254C1076.41 135.288 1076.47 124.428 1076.37 120.711C1076.26 116.994 1073.4 116.155 1071.99 116.201C1053.45 116.155 1015.52 116.092 1012.13 116.201Z" fill="url(&quot;#paint17_linear_306_7105&quot;)"></path><path _ngcontent-xcd-c37="" d="M699.172 120.438L688.922 130.687V235.509L699.172 245.758H741.948L752.334 235.509V209.679H731.014V222.799L728.691 225.395H712.838L710.105 222.799V143.26L712.565 140.937H728.691L731.014 143.26V156.38L752.334 156.653V130.687L742.221 120.438H699.172Z" fill="#FFFFFF"></path><path _ngcontent-xcd-c37="" d="M1098.25 120.58L1088 130.83V235.651L1098.25 245.901H1141.03L1151.41 235.651V209.822H1130.09V222.941L1127.77 225.538H1111.92L1109.18 222.941V143.403L1111.64 141.08H1127.77L1130.09 143.403V156.523L1151.41 156.796V130.83L1141.3 120.58H1098.25Z" fill="#FFFFFF"></path><path _ngcontent-xcd-c37="" d="M588.885 120.438H565.652V245.758H587.109V169.363L614.305 245.758H637.264V120.438H615.945V196.423L588.885 120.438Z" fill="#FFFFFF"></path><path _ngcontent-xcd-c37="" d="M399.196 120.301H372.41V245.758H393.866V161.573L413.956 218.836H425.162L445.662 161.573V245.758H466.845V120.301H440.196L419.559 179.203L399.196 120.301Z" fill="#FFFFFF"></path><path _ngcontent-xcd-c37="" fill-rule="evenodd" clip-rule="evenodd" d="M312.277 120.164H333.05L363.253 245.758H341.387L335.783 218.562H309.68L304.077 245.758H282.348L312.277 120.164ZM314.054 198.336L322.8 156.653L331.41 198.336H314.054Z" fill="#FFFFFF"></path><path _ngcontent-xcd-c37="" d="M199.667 120.301H132.838V140.527H155.524V245.622H176.844V140.527H199.667V120.301Z" fill="#FFFFFF"></path><path _ngcontent-xcd-c37="" d="M1226.56 120.301H1159.73V140.527H1182.42V245.622H1203.74V140.527H1226.56V120.301Z" fill="#FFFFFF"></path><path _ngcontent-xcd-c37="" fill-rule="evenodd" clip-rule="evenodd" d="M209.506 120.301H264.171L274.695 130.551V186.446L264.171 196.969L274.695 245.758H253.785L243.125 196.969H230.552V245.758H209.506V120.301ZM230.689 176.47V140.937H250.915L253.238 143.397V174.146L250.915 176.47H230.689Z" fill="#FFFFFF"></path><path _ngcontent-xcd-c37="" d="M25.4191 120.301H3.96289L4.09955 235.645L14.3494 245.758H57.1252L67.375 235.509V120.301H46.0554V223.209L44.0054 225.395H27.6058L25.4191 223.209V120.301Z" fill="#FFFFFF"></path><path _ngcontent-xcd-c37="" d="M103.181 120.301H81.8613V245.758H140.08V225.532H103.181V120.301Z" fill="#FFFFFF"></path><path _ngcontent-xcd-c37="" d="M1260.79 120.439H1239.47V245.897H1260.79V120.439Z" fill="#FFFFFF"></path><path _ngcontent-xcd-c37="" fill-rule="evenodd" clip-rule="evenodd" d="M505.931 120.164H526.978L556.907 246.032H535.177L529.438 218.699H503.608L498.005 246.032H476.002L505.931 120.164ZM507.571 198.199L516.454 156.927L525.064 198.199H507.571Z" fill="#FFFFFF"></path><path _ngcontent-xcd-c37="" fill-rule="evenodd" clip-rule="evenodd" d="M775.568 120.301H818.207L828.594 130.687V235.509L818.344 245.622H775.568L765.182 235.509V130.551L775.568 120.301ZM788.688 140.8H804.541L807.137 143.397V223.072L804.678 225.395H788.688L786.365 223.072V143.397L788.688 140.8Z" fill="#FFFFFF"></path><path _ngcontent-xcd-c37="" fill-rule="evenodd" clip-rule="evenodd" d="M1285.6 120.301H1328.24L1338.62 130.687V235.509L1328.38 245.622H1285.6L1275.21 235.509V130.551L1285.6 120.301ZM1298.72 140.8H1314.57L1317.17 143.397V223.072L1314.71 225.395H1298.72L1296.4 223.072V143.397L1298.72 140.8Z" fill="#FFFFFF"></path><path _ngcontent-xcd-c37="" d="M862.624 120.438H839.801V245.622H860.847V168.817L888.317 245.622H911.276V120.438H890.23V196.833L862.624 120.438Z" fill="#FFFFFF"></path><path _ngcontent-xcd-c37="" d="M948.585 120.301H925.762L925.625 245.622H946.945V169.363L974.141 245.622H997.237V120.301H976.054V196.833L948.585 120.301Z" fill="#FFFFFF"></path><path _ngcontent-xcd-c37="" d="M1372.65 120.301H1349.83L1349.69 245.622H1371.01V169.363L1398.21 245.622H1421.31V120.301H1400.12V196.833L1372.65 120.301Z" fill="#FFFFFF"></path><path _ngcontent-xcd-c37="" d="M1072.54 120.438H1011.86V245.622H1072.4V225.395H1032.91V192.049H1062.15V171.96H1032.77V140.527H1072.54V120.438Z" fill="#FFFFFF"></path><g _ngcontent-xcd-c37="" filter="url(#filter0_d_306_7105)" fill="none"><path _ngcontent-xcd-c37="" fill-rule="evenodd" clip-rule="evenodd" d="M643.81 79.5315V4L658.458 4.56791C671.135 4.99384 673.671 5.56174 678.178 8.54325C683.812 12.3766 688.883 21.4631 688.883 27.4261C688.883 33.3891 685.08 41.3398 679.305 47.3028L674.234 52.556L676.488 58.661C676.838 59.5615 677.262 60.6781 677.729 61.9064C678.956 65.1317 680.476 69.128 681.7 72.0068L684.657 79.5315H669.868L665.642 67.8894C659.867 51.9881 657.895 51.8461 657.895 67.3215V79.5315H643.81ZM668.318 38.3583C675.502 30.5496 676.488 25.8644 671.981 21.3211C669.304 18.6236 660.853 17.3458 658.881 19.4754C658.318 19.9014 657.895 25.5804 657.895 32.1114C657.895 46.8769 659.585 47.8707 668.318 38.3583Z" fill="#CC0B28"></path><path _ngcontent-xcd-c37="" d="M505.067 75.5562C498.025 69.0252 497.32 65.0499 497.32 33.3891V4.28394H511.406L511.688 33.5311L512.11 62.9202C513.325 69.3092 527.177 69.3092 528.027 62.9202V34.383L528.308 4.28394H542.394V34.8089C542.394 68.0314 541.83 70.7289 534.506 76.55C525.632 83.5068 513.096 83.2229 505.067 75.5562Z" fill="#CC0B28"></path><path _ngcontent-xcd-c37="" d="M553.662 42.9016C553.662 22.7409 554.085 5.70372 554.648 5.27779C555.071 4.70988 558.311 4.28395 561.55 4.28395H567.748L568.03 35.0929L568.452 66.0437L583.664 66.4697C597.468 66.7536 598.877 67.0376 598.032 69.3092C597.609 70.587 596.764 73.4265 596.341 75.5562L595.637 79.5315H553.662V42.9016Z" fill="#CC0B28"></path><path _ngcontent-xcd-c37="" d="M585.214 7.40744C585.777 9.25313 586.482 12.3766 586.904 14.5063C587.749 18.3396 588.172 18.4816 596.06 18.4816H604.37V79.5315H618.456V18.6236L634.372 17.7717L636.203 11.3828C637.33 7.83337 638.175 4.85186 638.175 4.56791C638.175 4.42593 626.062 4.28395 611.272 4.28395H584.369L585.214 7.40744Z" fill="#CC0B28"></path><path _ngcontent-xcd-c37="" fill-rule="evenodd" clip-rule="evenodd" d="M710.856 15.926C708.884 22.4569 703.532 39.3522 698.884 53.5498L690.573 79.5315H698.179C703.955 79.5315 705.786 78.9636 705.786 77.4019C705.786 75.6981 708.039 75.2722 717.054 75.2722C725.787 75.2722 728.604 75.6981 729.168 77.4019C729.731 78.9636 732.126 79.5315 736.915 79.5315C740.718 79.5315 743.817 79.1056 743.817 78.5377C743.817 77.9698 738.605 61.0746 732.266 40.9139C721.702 7.54941 720.294 4.28395 717.477 4.28395C714.8 4.28395 713.955 5.98767 710.856 15.926ZM721.28 49.5745C722.829 54.8276 724.097 59.6548 724.097 60.2227C724.097 60.6486 721.28 61.0746 717.758 61.0746C710.575 61.0746 710.293 60.6486 713.674 50.2844C714.259 48.515 714.814 46.7154 715.284 45.1926L715.284 45.19C715.832 43.415 716.263 42.0166 716.491 41.4818C717.477 38.2163 718.322 39.7781 721.28 49.5745Z" fill="#CC0B28"></path><path _ngcontent-xcd-c37="" d="M750.859 77.6858C750.859 73.5685 755.226 13.0865 755.93 8.8272C756.353 5.70372 757.339 4.28395 759.17 4.28395C761.142 4.28395 763.677 9.39511 770.579 27.1422C775.509 39.6361 779.875 49.4325 780.58 48.7226C781.143 48.1547 785.369 37.9324 790.017 26.2903C796.778 8.68523 798.75 4.85186 801.285 4.56791C803.68 4.14198 804.384 4.85186 804.384 6.98151C804.384 11.5248 808.469 69.7351 809.173 74.9883L809.878 79.5315H803.117C795.088 79.5315 794.524 78.6797 794.524 63.4882C794.524 58.0931 793.961 54.1177 793.398 54.5436C792.693 54.9696 790.017 60.7906 787.482 67.4635C781.284 83.7908 779.171 83.5069 772.269 66.0437C767.48 54.2597 767.058 53.5498 766.213 57.5252C765.649 59.7968 765.227 65.7598 765.086 70.587L764.945 79.5315H757.902C753.254 79.5315 750.859 78.9636 750.859 77.6858Z" fill="#CC0B28"></path><path _ngcontent-xcd-c37="" fill-rule="evenodd" clip-rule="evenodd" d="M839.175 5.27779C838.894 5.8457 837.908 8.68523 837.063 11.3828C836.725 12.4616 835.756 15.5157 834.4 19.7916C832.364 26.2079 829.457 35.3753 826.498 44.7473C824.329 51.6195 822.214 58.2168 820.49 63.5956C818.296 70.4404 816.734 75.312 816.498 76.2661C815.512 79.3895 815.793 79.5315 822.695 79.5315C827.766 79.5315 830.02 78.9636 830.583 77.4019C831.851 74.2784 852.979 74.2784 854.247 77.4019C854.81 78.9636 857.064 79.5315 862.135 79.5315C865.938 79.5315 869.177 79.3895 869.177 79.1056C869.177 78.9786 864.898 65.5694 859.359 48.2171L857.346 41.9077C847.345 10.9569 845.091 4.99384 842.697 4.56791C841.147 4.28396 839.598 4.56791 839.175 5.27779ZM845.655 47.8707C846.922 52.414 848.331 57.2412 848.753 58.519C849.599 60.7906 848.894 61.0746 842.415 61.0746C835.936 61.0746 835.231 60.7906 836.076 58.519C836.499 57.2412 837.908 52.414 839.175 47.8707C840.443 43.4695 841.852 39.7781 842.415 39.7781C842.978 39.7781 844.387 43.4695 845.655 47.8707Z" fill="#CC0B28"></path><path _ngcontent-xcd-c37="" d="M874.812 79.5315V4.28395H878.051C880.446 4.42593 883.826 8.40127 893.123 22.315L905.096 40.346L905.941 4.28395H919.885V79.5315H916.505C913.547 79.5315 911.293 76.55 901.997 61.0746C895.94 50.9942 890.588 42.7596 890.024 42.6176C889.32 42.6176 888.897 50.8523 888.897 61.0746V79.5315H874.812Z" fill="#CC0B28"></path></g><defs _ngcontent-xcd-c37=""><filter _ngcontent-xcd-c37="" id="filter0_d_306_7105" x="489.32" y="0" width="438.564" height="93.5469" filterUnits="userSpaceOnUse" color-interpolation-filters="sRGB"><feFlood _ngcontent-xcd-c37="" flood-opacity="0" result="BackgroundImageFix"></feFlood><feColorMatrix _ngcontent-xcd-c37="" in="SourceAlpha" type="matrix" values="0 0 0 0 0 0 0 0 0 0 0 0 0 0 0 0 0 0 127 0" result="hardAlpha"></feColorMatrix><feOffset _ngcontent-xcd-c37="" dy="4"></feOffset><feGaussianBlur _ngcontent-xcd-c37="" stdDeviation="4"></feGaussianBlur><feComposite _ngcontent-xcd-c37="" in2="hardAlpha" operator="out"></feComposite><feColorMatrix _ngcontent-xcd-c37="" type="matrix" values="0 0 0 0 0 0 0 0 0 0 0 0 0 0 0 0 0 0 0.25 0"></feColorMatrix><feBlend _ngcontent-xcd-c37="" mode="normal" in2="BackgroundImageFix" result="effect1_dropShadow_306_7105"></feBlend><feBlend _ngcontent-xcd-c37="" mode="normal" in="SourceGraphic" in2="effect1_dropShadow_306_7105" result="shape"></feBlend></filter><linearGradient _ngcontent-xcd-c37="" id="paint0_linear_306_7105" x1="1306.85" y1="116.338" x2="1306.85" y2="249.725" gradientUnits="userSpaceOnUse"><stop _ngcontent-xcd-c37="" stop-color="#ADADAD"></stop><stop _ngcontent-xcd-c37="" offset="1" stop-color="#3E3E3E"></stop></linearGradient><linearGradient _ngcontent-xcd-c37="" id="paint1_linear_306_7105" x1="720.551" y1="116.471" x2="720.551" y2="249.86" gradientUnits="userSpaceOnUse"><stop _ngcontent-xcd-c37="" stop-color="#ADADAD"></stop><stop _ngcontent-xcd-c37="" offset="1" stop-color="#3E3E3E"></stop></linearGradient><linearGradient _ngcontent-xcd-c37="" id="paint2_linear_306_7105" x1="1119.63" y1="116.611" x2="1119.63" y2="250" gradientUnits="userSpaceOnUse"><stop _ngcontent-xcd-c37="" stop-color="#ADADAD"></stop><stop _ngcontent-xcd-c37="" offset="1" stop-color="#3E3E3E"></stop></linearGradient><linearGradient _ngcontent-xcd-c37="" id="paint3_linear_306_7105" x1="419.628" y1="116.336" x2="419.628" y2="249.86" gradientUnits="userSpaceOnUse"><stop _ngcontent-xcd-c37="" stop-color="#ADADAD"></stop><stop _ngcontent-xcd-c37="" offset="1" stop-color="#3E3E3E"></stop></linearGradient><linearGradient _ngcontent-xcd-c37="" id="paint4_linear_306_7105" x1="601.489" y1="116.32" x2="601.489" y2="249.868" gradientUnits="userSpaceOnUse"><stop _ngcontent-xcd-c37="" stop-color="#ADADAD"></stop><stop _ngcontent-xcd-c37="" offset="1" stop-color="#3E3E3E"></stop></linearGradient><linearGradient _ngcontent-xcd-c37="" id="paint5_linear_306_7105" x1="516.357" y1="116.199" x2="516.357" y2="249.724" gradientUnits="userSpaceOnUse"><stop _ngcontent-xcd-c37="" stop-color="#ADADAD"></stop><stop _ngcontent-xcd-c37="" offset="1" stop-color="#3E3E3E"></stop></linearGradient><linearGradient _ngcontent-xcd-c37="" id="paint6_linear_306_7105" x1="166.253" y1="116.338" x2="166.253" y2="249.722" gradientUnits="userSpaceOnUse"><stop _ngcontent-xcd-c37="" stop-color="#ADADAD"></stop><stop _ngcontent-xcd-c37="" offset="1" stop-color="#3E3E3E"></stop></linearGradient><linearGradient _ngcontent-xcd-c37="" id="paint7_linear_306_7105" x1="1193.15" y1="116.338" x2="1193.15" y2="249.722" gradientUnits="userSpaceOnUse"><stop _ngcontent-xcd-c37="" stop-color="#ADADAD"></stop><stop _ngcontent-xcd-c37="" offset="1" stop-color="#3E3E3E"></stop></linearGradient><linearGradient _ngcontent-xcd-c37="" id="paint8_linear_306_7105" x1="111.147" y1="116.473" x2="111.147" y2="249.731" gradientUnits="userSpaceOnUse"><stop _ngcontent-xcd-c37="" stop-color="#ADADAD"></stop><stop _ngcontent-xcd-c37="" offset="1" stop-color="#3E3E3E"></stop></linearGradient><linearGradient _ngcontent-xcd-c37="" id="paint9_linear_306_7105" x1="1250.16" y1="116.611" x2="1250.16" y2="249.87" gradientUnits="userSpaceOnUse"><stop _ngcontent-xcd-c37="" stop-color="#ADADAD"></stop><stop _ngcontent-xcd-c37="" offset="1" stop-color="#3E3E3E"></stop></linearGradient><linearGradient _ngcontent-xcd-c37="" id="paint10_linear_306_7105" x1="35.6693" y1="116.201" x2="35.6693" y2="249.593" gradientUnits="userSpaceOnUse"><stop _ngcontent-xcd-c37="" stop-color="#ADADAD"></stop><stop _ngcontent-xcd-c37="" offset="1" stop-color="#3E3E3E"></stop></linearGradient><linearGradient _ngcontent-xcd-c37="" id="paint11_linear_306_7105" x1="322.777" y1="116.338" x2="322.777" y2="249.859" gradientUnits="userSpaceOnUse"><stop _ngcontent-xcd-c37="" stop-color="#ADADAD"></stop><stop _ngcontent-xcd-c37="" offset="1" stop-color="#3E3E3E"></stop></linearGradient><linearGradient _ngcontent-xcd-c37="" id="paint12_linear_306_7105" x1="241.967" y1="116.332" x2="241.967" y2="249.723" gradientUnits="userSpaceOnUse"><stop _ngcontent-xcd-c37="" stop-color="#ADADAD"></stop><stop _ngcontent-xcd-c37="" offset="1" stop-color="#3E3E3E"></stop></linearGradient><linearGradient _ngcontent-xcd-c37="" id="paint13_linear_306_7105" x1="796.822" y1="116.338" x2="796.822" y2="249.725" gradientUnits="userSpaceOnUse"><stop _ngcontent-xcd-c37="" stop-color="#ADADAD"></stop><stop _ngcontent-xcd-c37="" offset="1" stop-color="#3E3E3E"></stop></linearGradient><linearGradient _ngcontent-xcd-c37="" id="paint14_linear_306_7105" x1="875.605" y1="116.199" x2="875.605" y2="249.73" gradientUnits="userSpaceOnUse"><stop _ngcontent-xcd-c37="" stop-color="#ADADAD"></stop><stop _ngcontent-xcd-c37="" offset="1" stop-color="#3E3E3E"></stop></linearGradient><linearGradient _ngcontent-xcd-c37="" id="paint15_linear_306_7105" x1="961.439" y1="116.338" x2="961.439" y2="249.722" gradientUnits="userSpaceOnUse"><stop _ngcontent-xcd-c37="" stop-color="#ADADAD"></stop><stop _ngcontent-xcd-c37="" offset="1" stop-color="#3E3E3E"></stop></linearGradient><linearGradient _ngcontent-xcd-c37="" id="paint16_linear_306_7105" x1="1385.51" y1="116.338" x2="1385.51" y2="249.722" gradientUnits="userSpaceOnUse"><stop _ngcontent-xcd-c37="" stop-color="#ADADAD"></stop><stop _ngcontent-xcd-c37="" offset="1" stop-color="#3E3E3E"></stop></linearGradient><linearGradient _ngcontent-xcd-c37="" id="paint17_linear_306_7105" x1="1042.02" y1="116.141" x2="1042.02" y2="249.722" gradientUnits="userSpaceOnUse"><stop _ngcontent-xcd-c37="" stop-color="#ADADAD"></stop><stop _ngcontent-xcd-c37="" offset="1" stop-color="#3E3E3E"></stop></linearGradient><linearGradient _ngcontent-xcd-c37="" id="paint0_linear_306_7105" x1="1306.85" y1="116.338" x2="1306.85" y2="249.725" gradientUnits="userSpaceOnUse"><stop _ngcontent-xcd-c37="" stop-color="#ADADAD"></stop><stop _ngcontent-xcd-c37="" offset="1" stop-color="#3E3E3E"></stop></linearGradient><linearGradient _ngcontent-xcd-c37="" id="paint1_linear_306_7105" x1="720.551" y1="116.471" x2="720.551" y2="249.86" gradientUnits="userSpaceOnUse"><stop _ngcontent-xcd-c37="" stop-color="#ADADAD"></stop><stop _ngcontent-xcd-c37="" offset="1" stop-color="#3E3E3E"></stop></linearGradient><linearGradient _ngcontent-xcd-c37="" id="paint2_linear_306_7105" x1="1119.63" y1="116.611" x2="1119.63" y2="250" gradientUnits="userSpaceOnUse"><stop _ngcontent-xcd-c37="" stop-color="#ADADAD"></stop><stop _ngcontent-xcd-c37="" offset="1" stop-color="#3E3E3E"></stop></linearGradient><linearGradient _ngcontent-xcd-c37="" id="paint3_linear_306_7105" x1="419.628" y1="116.336" x2="419.628" y2="249.86" gradientUnits="userSpaceOnUse"><stop _ngcontent-xcd-c37="" stop-color="#ADADAD"></stop><stop _ngcontent-xcd-c37="" offset="1" stop-color="#3E3E3E"></stop></linearGradient><linearGradient _ngcontent-xcd-c37="" id="paint4_linear_306_7105" x1="601.489" y1="116.32" x2="601.489" y2="249.868" gradientUnits="userSpaceOnUse"><stop _ngcontent-xcd-c37="" stop-color="#ADADAD"></stop><stop _ngcontent-xcd-c37="" offset="1" stop-color="#3E3E3E"></stop></linearGradient><linearGradient _ngcontent-xcd-c37="" id="paint5_linear_306_7105" x1="516.357" y1="116.199" x2="516.357" y2="249.724" gradientUnits="userSpaceOnUse"><stop _ngcontent-xcd-c37="" stop-color="#ADADAD"></stop><stop _ngcontent-xcd-c37="" offset="1" stop-color="#3E3E3E"></stop></linearGradient><linearGradient _ngcontent-xcd-c37="" id="paint6_linear_306_7105" x1="166.253" y1="116.338" x2="166.253" y2="249.722" gradientUnits="userSpaceOnUse"><stop _ngcontent-xcd-c37="" stop-color="#ADADAD"></stop><stop _ngcontent-xcd-c37="" offset="1" stop-color="#3E3E3E"></stop></linearGradient><linearGradient _ngcontent-xcd-c37="" id="paint7_linear_306_7105" x1="1193.15" y1="116.338" x2="1193.15" y2="249.722" gradientUnits="userSpaceOnUse"><stop _ngcontent-xcd-c37="" stop-color="#ADADAD"></stop><stop _ngcontent-xcd-c37="" offset="1" stop-color="#3E3E3E"></stop></linearGradient><linearGradient _ngcontent-xcd-c37="" id="paint8_linear_306_7105" x1="111.147" y1="116.473" x2="111.147" y2="249.731" gradientUnits="userSpaceOnUse"><stop _ngcontent-xcd-c37="" stop-color="#ADADAD"></stop><stop _ngcontent-xcd-c37="" offset="1" stop-color="#3E3E3E"></stop></linearGradient><linearGradient _ngcontent-xcd-c37="" id="paint9_linear_306_7105" x1="1250.16" y1="116.611" x2="1250.16" y2="249.87" gradientUnits="userSpaceOnUse"><stop _ngcontent-xcd-c37="" stop-color="#ADADAD"></stop><stop _ngcontent-xcd-c37="" offset="1" stop-color="#3E3E3E"></stop></linearGradient><linearGradient _ngcontent-xcd-c37="" id="paint10_linear_306_7105" x1="35.6693" y1="116.201" x2="35.6693" y2="249.593" gradientUnits="userSpaceOnUse"><stop _ngcontent-xcd-c37="" stop-color="#ADADAD"></stop><stop _ngcontent-xcd-c37="" offset="1" stop-color="#3E3E3E"></stop></linearGradient><linearGradient _ngcontent-xcd-c37="" id="paint11_linear_306_7105" x1="322.777" y1="116.338" x2="322.777" y2="249.859" gradientUnits="userSpaceOnUse"><stop _ngcontent-xcd-c37="" stop-color="#ADADAD"></stop><stop _ngcontent-xcd-c37="" offset="1" stop-color="#3E3E3E"></stop></linearGradient><linearGradient _ngcontent-xcd-c37="" id="paint12_linear_306_7105" x1="241.967" y1="116.332" x2="241.967" y2="249.723" gradientUnits="userSpaceOnUse"><stop _ngcontent-xcd-c37="" stop-color="#ADADAD"></stop><stop _ngcontent-xcd-c37="" offset="1" stop-color="#3E3E3E"></stop></linearGradient><linearGradient _ngcontent-xcd-c37="" id="paint13_linear_306_7105" x1="796.822" y1="116.338" x2="796.822" y2="249.725" gradientUnits="userSpaceOnUse"><stop _ngcontent-xcd-c37="" stop-color="#ADADAD"></stop><stop _ngcontent-xcd-c37="" offset="1" stop-color="#3E3E3E"></stop></linearGradient><linearGradient _ngcontent-xcd-c37="" id="paint14_linear_306_7105" x1="875.605" y1="116.199" x2="875.605" y2="249.73" gradientUnits="userSpaceOnUse"><stop _ngcontent-xcd-c37="" stop-color="#ADADAD"></stop><stop _ngcontent-xcd-c37="" offset="1" stop-color="#3E3E3E"></stop></linearGradient><linearGradient _ngcontent-xcd-c37="" id="paint15_linear_306_7105" x1="961.439" y1="116.338" x2="961.439" y2="249.722" gradientUnits="userSpaceOnUse"><stop _ngcontent-xcd-c37="" stop-color="#ADADAD"></stop><stop _ngcontent-xcd-c37="" offset="1" stop-color="#3E3E3E"></stop></linearGradient><linearGradient _ngcontent-xcd-c37="" id="paint16_linear_306_7105" x1="1385.51" y1="116.338" x2="1385.51" y2="249.722" gradientUnits="userSpaceOnUse"><stop _ngcontent-xcd-c37="" stop-color="#ADADAD"></stop><stop _ngcontent-xcd-c37="" offset="1" stop-color="#3E3E3E"></stop></linearGradient><linearGradient _ngcontent-xcd-c37="" id="paint17_linear_306_7105" x1="1042.02" y1="116.141" x2="1042.02" y2="249.722" gradientUnits="userSpaceOnUse"><stop _ngcontent-xcd-c37="" stop-color="#ADADAD"></stop><stop _ngcontent-xcd-c37="" offset="1" stop-color="#3E3E3E"></stop></linearGradient></defs></svg>