<svg xmlns:xlink="http://www.w3.org/1999/xlink" _ngcontent-xcd-c38="" width="15" height="15" viewBox="0 0 15 15" fill="none" xmlns="http://www.w3.org/2000/svg" class="mobile"><path _ngcontent-xcd-c38="" d="M7.305 4.92308C6.01213 4.92308 4.95704 5.97817 4.95704 7.27106C4.95704 8.56395 6.01213 9.61905 7.305 9.61905C8.59788 9.61905 9.65296 8.56395 9.65296 7.27106C9.65296 5.97817 8.59788 4.92308 7.305 4.92308ZM14.3471 7.27106C14.3471 6.29875 14.3559 5.33525 14.3013 4.3647C14.2467 3.23739 13.9896 2.23689 13.1652 1.41255C12.3391 0.586435 11.3404 0.331028 10.2131 0.276424C9.24079 0.221819 8.2773 0.230626 7.30676 0.230626C6.33446 0.230626 5.37097 0.221819 4.40043 0.276424C3.27313 0.331028 2.27265 0.588197 1.44831 1.41255C0.622209 2.23866 0.366805 3.23739 0.312201 4.3647C0.257597 5.33701 0.266405 6.30051 0.266405 7.27106C0.266405 8.24161 0.257597 9.20687 0.312201 10.1774C0.366805 11.3047 0.623971 12.3052 1.44831 13.1296C2.27441 13.9557 3.27313 14.2111 4.40043 14.2657C5.37273 14.3203 6.33622 14.3115 7.30676 14.3115C8.27906 14.3115 9.24255 14.3203 10.2131 14.2657C11.3404 14.2111 12.3409 13.9539 13.1652 13.1296C13.9913 12.3035 14.2467 11.3047 14.3013 10.1774C14.3577 9.20687 14.3471 8.24337 14.3471 7.27106ZM7.305 10.8838C5.3058 10.8838 3.69235 9.27028 3.69235 7.27106C3.69235 5.27184 5.3058 3.65837 7.305 3.65837C9.3042 3.65837 10.9177 5.27184 10.9177 7.27106C10.9177 9.27028 9.3042 10.8838 7.305 10.8838ZM11.0656 4.35413C10.5988 4.35413 10.2219 3.97719 10.2219 3.51041C10.2219 3.04363 10.5988 2.66668 11.0656 2.66668C11.5324 2.66668 11.9093 3.04363 11.9093 3.51041C11.9095 3.62125 11.8877 3.73102 11.8454 3.83345C11.803 3.93588 11.7409 4.02895 11.6625 4.10732C11.5841 4.1857 11.4911 4.24784 11.3887 4.29019C11.2862 4.33254 11.1764 4.35427 11.0656 4.35413Z" fill="#FFFFFF"></path></svg>