<svg xmlns:xlink="http://www.w3.org/1999/xlink" _ngcontent-xcd-c38="" width="97" height="79" viewBox="0 0 97 79" fill="none" xmlns="http://www.w3.org/2000/svg"><path _ngcontent-xcd-c38="" fill-rule="evenodd" clip-rule="evenodd" d="M57.0657 9.13532L54.0794 6.34455C52.4244 4.81351 50.9787 3.57317 50.8647 3.59255C50.294 3.68945 0.0571667 15.1238 3.78383e-05 15.1626C-0.0190051 15.2014 7.15226 18.3991 15.9405 22.2752C24.7286 26.1512 31.8998 29.4265 31.8808 29.5428C31.8427 29.6591 30.6634 31.5971 29.2558 33.8452L26.6878 37.9538H0.133217L0.247352 40.764L3.38602 40.8803V55.2023H6.2393V40.8609H11.204L10.8616 41.3842C10.6524 41.6943 10.4051 42.1788 10.2719 42.4695C9.96757 43.2059 9.98661 45.2215 10.31 45.8804C10.7475 46.7332 11.9649 47.7215 13.6388 48.6131C15.522 49.6014 16.1307 50.2798 16.1307 51.3457C16.1307 52.9542 14.5518 53.6326 13.4485 52.5085C13.011 52.0628 12.8969 51.7527 12.8969 51.1519V50.3573H9.85343V51.5395C9.85343 53.1674 10.367 54.0783 11.6606 54.7178C13.4866 55.6481 16.5491 55.4931 18.0329 54.4272C19.2503 53.5356 19.7638 50.7449 19.003 49.1169C18.5083 48.0898 17.9187 47.6053 15.7882 46.4812C13.81 45.4347 13.0872 44.737 13.0872 43.8843C13.0872 42.954 13.7149 42.2175 14.5328 42.2175C15.4268 42.2175 15.9405 42.7796 15.9405 43.7679V44.5432H18.9839V43.3222C18.9839 42.4695 18.8698 41.9462 18.6036 41.4811L18.2231 40.8609H20.3155V46.52C20.3155 51.617 20.3536 52.2759 20.6769 52.9736C21.3807 54.5822 22.7312 55.2799 25.1661 55.2799C26.9921 55.2993 27.9052 55.0085 28.8943 54.0977C30.1687 52.9349 30.283 52.1403 30.1497 46.0355L30.0357 40.8609H31.3482V55.2023H34.2585C38.4242 55.183 39.2232 54.9311 40.0602 53.2644C40.3645 52.6248 40.4787 52.0821 40.4787 51.1325C40.4596 49.1945 39.7178 47.8378 38.4623 47.4696L37.9107 47.3146L38.4053 47.1014C40.2124 46.3649 40.859 43.4191 39.6037 41.5392L39.1662 40.8609H41.2395V46.52C41.2395 52.838 41.3157 53.2256 42.552 54.2915C44.5494 55.997 49.0194 55.6288 50.313 53.6713C51.0548 52.5667 51.1309 51.8108 51.1309 46.2293V40.8609H52.4624L52.5005 47.9735L52.5577 55.1055H55.601L55.7152 48.7875L56.7804 48.8456C57.6935 48.9037 57.9027 48.9813 58.2452 49.4464C58.5874 49.9309 58.6446 50.3185 58.7016 52.6054L58.7777 55.2023H61.783V52.4891C61.783 49.6596 61.6498 49.0782 60.9082 48.3999C60.6991 48.2254 60.2997 48.0123 60.0141 47.9154L59.4624 47.7216L60.2044 47.2564C61.9734 46.0936 62.3349 42.8377 60.889 41.2097C60.6039 40.8803 60.6991 40.8609 63.3621 40.8609C64.9026 40.8609 66.1582 40.9191 66.1582 40.9966C66.1582 41.1516 62.5633 54.524 62.4108 54.9311C62.3156 55.183 62.5253 55.2023 63.7044 55.1636L65.1117 55.1055L65.5684 53.4L66.0058 51.7139H70.1341L70.419 52.7217C70.5714 53.2837 70.7806 54.0589 70.8758 54.4272L71.0275 55.1055L72.5874 55.1636C73.4435 55.2023 74.1473 55.183 74.1473 55.1442C74.1473 55.0473 70.7426 41.6168 70.6094 41.1904C70.5142 40.8803 70.6281 40.8415 71.6939 40.8997L72.8923 40.9579L74.5467 44.9889L76.221 49.0201L76.3349 55.1055H79.3786L79.5684 48.7099L81.2807 44.7951L82.9928 40.8609H83.9057C84.4003 40.8609 84.7997 40.8997 84.7997 40.9385C84.7997 41.0159 81.2998 54.1171 81.0716 54.8729C80.9764 55.183 81.0902 55.2217 82.3459 55.1636L83.7345 55.1055L83.9057 54.4272C83.9811 54.0614 84.1884 53.2942 84.3401 52.7331L84.3431 52.7217L84.6286 51.7139H88.7756L88.9845 52.5279C89.0346 52.7325 89.1033 52.9933 89.1744 53.2626L89.1923 53.3307C89.2765 53.6522 89.3625 53.9799 89.422 54.2334L89.669 55.1055L91.2481 55.1636C92.6748 55.2217 92.8079 55.183 92.7128 54.8729C92.6556 54.6791 91.8759 51.5976 90.9818 48.0316C90.4384 45.9097 89.9491 43.9593 89.6298 42.6869L89.6217 42.6546C89.409 41.8072 89.2736 41.2679 89.2509 41.1904C89.1557 40.8997 89.3081 40.8609 90.6775 40.8609H92.2182V37.9538L51.4923 37.857L74.2237 18.9805C86.7398 8.61203 96.9735 0.0847106 96.9735 0.0459494C96.9735 0.0392928 96.9812 0.0313544 96.9883 0.0239615C96.995 0.0169425 97.0013 0.0104193 97 0.00595615C96.9838 -0.0530687 95.6758 0.248521 77.0812 4.53611L57.0657 9.13532ZM88.0905 4.50343C87.805 4.75537 78.6176 12.3912 67.6988 21.4612L47.8401 37.9538H29.2748L32.2232 33.3026C33.84 30.725 35.1525 28.5738 35.1525 28.4963C35.1525 28.4187 28.7802 25.5699 20.9812 22.1589C13.2012 18.748 6.80997 15.9184 6.80997 15.8603C6.80997 15.744 49.1907 6.15076 49.6092 6.17014C49.7614 6.18953 51.2069 7.35235 52.8239 8.7865C54.4218 10.2206 55.8864 11.4028 56.0577 11.4028C56.2288 11.4028 63.514 9.75546 72.2452 7.73994C80.9764 5.72438 88.243 4.05768 88.3761 4.05768C88.5279 4.0383 88.3948 4.25147 88.0905 4.50343ZM26.9732 40.8609V51.8884L26.5166 52.431C25.8699 53.1868 24.6524 53.1868 24.0058 52.431L23.5491 51.8884V40.8609H26.9732ZM47.8973 46.4294C47.8782 52.276 47.8778 52.373 47.0032 52.8379C46.2994 53.2256 45.6145 53.1093 45.0249 52.5085L44.4733 51.9464V40.8609H47.8973V46.4294ZM80.0443 40.9966C80.0443 41.2679 78.2941 46.5781 78.1609 46.7332C78.047 46.8494 76.221 41.4423 76.2397 40.9966C76.2397 40.8222 80.0443 40.8222 80.0443 40.9966ZM36.5791 42.6827C37.0738 43.1866 37.359 44.2718 37.1689 45.0277C36.9406 45.9386 36.389 46.2874 35.2477 46.2874H34.2015V42.2175H35.1525C35.9134 42.2175 36.2177 42.3145 36.5791 42.6827ZM58.0169 42.7796C58.5495 43.2641 58.6255 43.4385 58.6255 44.4075C58.6446 45.2021 58.5495 45.6285 58.2452 46.0355C57.8837 46.52 57.7126 46.5781 56.6663 46.6363L55.506 46.6944V42.2175H56.4571C57.237 42.2175 57.5223 42.3145 58.0169 42.7796ZM69.0303 46.2099C69.3918 48.0704 69.6581 49.6208 69.6202 49.679C69.5629 49.7371 68.8405 49.7759 68.0031 49.7759C66.5384 49.7759 66.5005 49.7565 66.6149 49.3302C66.6403 49.2271 66.7253 48.854 66.847 48.3202C66.9528 47.8543 67.0868 47.2661 67.2333 46.6284C67.2978 46.3478 67.3647 46.0577 67.4325 45.7642C67.8133 44.0393 68.1934 42.6633 68.2506 42.7214C68.2886 42.7796 68.6502 44.3494 69.0303 46.2099ZM87.5766 45.9192C87.938 47.6634 88.2237 49.2332 88.2237 49.427C88.2237 49.7371 88.0332 49.7759 86.7018 49.7759C85.8649 49.7759 85.1798 49.7177 85.1798 49.6596C85.1798 49.2914 86.7777 42.6245 86.8542 42.6827C86.8921 42.7408 87.2157 44.1944 87.5766 45.9192ZM36.5031 48.6131C37.1308 48.9619 37.4922 49.9309 37.3971 51.055C37.264 52.5667 36.9215 52.8767 35.3047 52.8767H34.0111V52.2372C34.0111 51.9077 34.0683 50.8999 34.1444 50.0085L34.2585 48.4193H35.1906C35.7041 48.4193 36.2939 48.5161 36.5031 48.6131Z" fill="#1947BA"></path><path _ngcontent-xcd-c38="" d="M8.9025 67.0629C5.07914 73.3616 1.84537 78.73 1.71232 78.9816C1.57914 79.2337 4.60355 76.8115 8.46513 73.5937C10.1061 72.22 12.2155 70.4574 14.4021 68.6303L15.1194 68.0309C17.8294 65.7667 20.5918 63.458 22.6744 61.714L29.8837 55.6866L26.4026 55.5703L18.4516 62.315C14.0955 66.0164 10.3482 69.1947 10.158 69.3496C10.1122 69.3846 10.0662 69.4244 10.0254 69.4598C9.95683 69.5191 9.90287 69.5659 9.88883 69.5556C9.83622 69.5175 10.3385 68.6869 12.7095 64.765C13.0999 64.1194 13.5409 63.39 14.0385 62.5666C16.2069 59.0006 18.0331 55.958 18.1092 55.8223C18.2043 55.6479 17.9569 55.5897 17.0439 55.5897H15.8455L8.9025 67.0629Z" fill="#1947BA"></path></svg>