<svg xmlns:xlink="http://www.w3.org/1999/xlink" _ngcontent-xcd-c38="" width="17" height="14" viewBox="0 0 17 14" fill="none" xmlns="http://www.w3.org/2000/svg" class="mobile"><path _ngcontent-xcd-c38="" d="M16.6541 2.38503C16.2149 3.03811 15.6762 3.59483 15.0378 4.05519C15.0441 4.17866 15.0473 4.31821 15.0473 4.47384C15.0473 5.33856 14.9212 6.20432 14.669 7.07113C14.4168 7.93794 14.0316 8.76764 13.5134 9.56021C12.9952 10.3528 12.3778 11.0549 11.6615 11.6667C10.9451 12.2784 10.0839 12.7662 9.07805 13.13C8.07217 13.4937 6.99414 13.6756 5.84396 13.6756C4.0489 13.6756 2.39583 13.1911 0.88475 12.2221C1.15295 12.2519 1.41018 12.2668 1.65643 12.2668C3.15605 12.2668 4.49545 11.805 5.67464 10.8813C4.97543 10.8685 4.34924 10.6533 3.79606 10.2357C3.24288 9.8181 2.86219 9.2845 2.654 8.63488C2.85978 8.67407 3.06289 8.69367 3.2633 8.69367C3.55179 8.69367 3.83566 8.65605 4.11491 8.58081C3.36873 8.43139 2.7497 8.05979 2.25784 7.46603C1.76599 6.87227 1.52007 6.18696 1.52007 5.4101V5.37006C1.97808 5.62362 2.46662 5.75849 2.98569 5.77468C2.54366 5.48003 2.19319 5.09581 1.93429 4.622C1.67538 4.14819 1.54592 3.63545 1.54592 3.08377C1.54592 2.50193 1.69174 1.96013 1.98338 1.45837C2.79484 2.45401 3.7781 3.24976 4.93315 3.84562C6.08822 4.44149 7.32739 4.77241 8.65066 4.8384C8.59422 4.60322 8.56595 4.35781 8.56584 4.10215C8.56584 3.20948 8.88179 2.44728 9.51368 1.81554C10.1456 1.18379 10.9079 0.86792 11.8007 0.86792C12.7354 0.86792 13.5228 1.20822 14.1627 1.88883C14.8939 1.74403 15.5785 1.48212 16.2165 1.10309C15.9707 1.87659 15.497 2.4733 14.7955 2.8932C15.4403 2.81659 16.0598 2.6472 16.654 2.38503H16.6541Z" fill="#FFFFFF"></path></svg>