<svg xmlns:xlink="http://www.w3.org/1999/xlink" _ngcontent-xcd-c38="" width="18" height="13" viewBox="0 0 18 13" fill="none" xmlns="http://www.w3.org/2000/svg" class="mobile"><path _ngcontent-xcd-c38="" d="M17.0818 2.2584C16.9872 1.90542 16.8017 1.58353 16.5439 1.32493C16.286 1.06633 15.9649 0.880103 15.6126 0.784881C14.3159 0.435547 9.11789 0.435547 9.11789 0.435547C9.11789 0.435547 3.91991 0.435547 2.62319 0.783023C2.27076 0.877936 1.94946 1.06406 1.69157 1.32271C1.43368 1.58135 1.24826 1.90341 1.15395 2.25654C0.807049 3.55726 0.807049 6.27017 0.807049 6.27017C0.807049 6.27017 0.807049 8.98309 1.15395 10.2819C1.34503 10.9992 1.90898 11.5641 2.62319 11.7555C3.91991 12.1048 9.11789 12.1048 9.11789 12.1048C9.11789 12.1048 14.3159 12.1048 15.6126 11.7555C16.3287 11.5641 16.8908 10.9992 17.0818 10.2819C17.4287 8.98309 17.4287 6.27017 17.4287 6.27017C17.4287 6.27017 17.4287 3.55726 17.0818 2.2584ZM7.46686 8.76011V3.78024L11.7707 6.25159L7.46686 8.76011Z" fill="#FFFFFF"></path></svg>